<?xml version="1.0" encoding="UTF-8" standalone="no"?>
<svg width="14px" height="8px" viewBox="0 0 14 8" version="1.1" xmlns="http://www.w3.org/2000/svg" xmlns:xlink="http://www.w3.org/1999/xlink">
    <!-- Generator: Sketch 39.1 (31720) - http://www.bohemiancoding.com/sketch -->
    <title>Page 1</title>
    <desc>Created with Sketch.</desc>
    <defs></defs>
    <g id="Page-1" stroke="none" stroke-width="1" fill="none" fill-rule="evenodd" fill-opacity="0.3">
        <g id="Default-screen" transform="translate(-332.000000, -181.000000)" fill="#FFFFFF">
            <g id="Rectangle-+-45:00-+-Page-1-+-Page-1-+-Page-1-+-Focus-+-What-are-you-going-t-Mask">
                <g id="Footer" transform="translate(0.000000, 172.000000)">
                    <g id="Controls" transform="translate(332.000000, 7.000000)">
                        <path d="M0,7 L1.5,7 L1.5,5.5 L0,5.5 L0,7 L0,7 Z M0,10 L1.5,10 L1.5,8.5 L0,8.5 L0,10 L0,10 Z M0,4 L1.5,4 L1.5,2.5 L0,2.5 L0,4 L0,4 Z M3,7 L13.5,7 L13.5,5.5 L3,5.5 L3,7 L3,7 Z M3,10 L13.5,10 L13.5,8.5 L3,8.5 L3,10 L3,10 Z M3,2.5 L3,4 L13.5,4 L13.5,2.5 L3,2.5 L3,2.5 Z" id="Page-1"></path>
                    </g>
                </g>
            </g>
        </g>
    </g>
</svg>