<?xml version="1.0" encoding="UTF-8" standalone="no"?>
<svg width="10px" height="10px" viewBox="0 0 10 10" version="1.1" xmlns="http://www.w3.org/2000/svg" xmlns:xlink="http://www.w3.org/1999/xlink">
    <!-- Generator: Sketch 39.1 (31720) - http://www.bohemiancoding.com/sketch -->
    <title>Page 1</title>
    <desc>Created with Sketch.</desc>
    <defs></defs>
    <g id="Page-1" stroke="none" stroke-width="1" fill="none" fill-rule="evenodd" fill-opacity="0.397446784">
        <g id="Default-screen-Copy-3" transform="translate(-358.000000, -179.000000)" fill="#FFFFFF">
            <g id="00:00-+-Focus-+-Work-session-3-+-Design-Pomodoro-app’-+-Result-+-What-did-you-end-up-+-Rectangle-+-Break-+-Page-1-Mask">
                <path d="M362,186.25 L365,184 L362,181.75 L362,186.25 L362,186.25 Z M363,179 C360.2375,179 358,181.2375 358,184 C358,186.7625 360.2375,189 363,189 C365.7625,189 368,186.7625 368,184 C368,181.2375 365.7625,179 363,179 L363,179 Z M363,188 C360.795,188 359,186.205 359,184 C359,181.795 360.795,180 363,180 C365.205,180 367,181.795 367,184 C367,186.205 365.205,188 363,188 L363,188 Z" id="Page-1"></path>
            </g>
        </g>
    </g>
</svg>